<svg version="1.1" xmlns="http://www.w3.org/2000/svg" xmlns:xlink="http://www.w3.org/1999/xlink" width="146.22513" height="146" viewBox="0,0,146.22513,146"><g transform="translate(-166.88744,-107)"><g data-paper-data="{&quot;isPaintingLayer&quot;:true}" fill-rule="nonzero" stroke="none" stroke-linecap="butt" stroke-linejoin="miter" stroke-miterlimit="10" stroke-dasharray="" stroke-dashoffset="0" style="mix-blend-mode: normal"><path d="M167.11256,225.86724c0,-27.73284 0,-62.70964 0,-90.44248c0,-16.72335 7.82532,-28.42476 24.54868,-28.42476c32.27094,0 63.33968,0 95.61062,0c16.50154,0 25.84071,10.63119 25.84071,27.13273c0,31.26247 0,61.76408 0,93.02656c0,16.12552 -9.71519,25.84071 -25.84071,25.84071c-30.25401,0 -64.06457,0 -94.31858,0c-30.25401,0 -25.84071,-27.13276 -25.84071,-27.13276c0,0 -0.00001,4.73284 -0.00001,0z" fill="#000000" stroke-width="0"/><path d="M214.53349,145.74585c10.30825,7.73878 21.39594,23.42981 25.46678,31.85052c4.07115,-8.4201 15.15822,-24.1119 25.46678,-31.85052c7.43789,-5.584 19.48918,-9.90457 19.48918,3.84373c0,2.74572 -1.57423,23.06551 -2.49754,26.36434c-3.20939,11.46904 -14.9043,14.39428 -25.3071,12.62379c18.18391,3.09483 22.80972,13.34603 12.81973,23.59723c-18.97296,19.46903 -27.26966,-4.88485 -29.39655,-11.1252c-0.38972,-1.14401 -0.57209,-1.67918 -0.57477,-1.2241c-0.0027,-0.45509 -0.18505,0.0801 -0.57477,1.2241c-2.12595,6.24035 -10.4225,30.59486 -29.39655,11.1252c-9.99014,-10.2512 -5.36449,-20.50302 12.81973,-23.59723c-10.40312,1.77049 -22.09818,-1.15476 -25.3071,-12.62379c-0.92333,-3.29915 -2.49754,-23.61893 -2.49754,-26.36434c0,-13.74831 12.05161,-9.42773 19.48918,-3.84373z" fill="#ffffff" stroke-width="1"/></g></g></svg>